<svg width="148" height="70" viewBox="0 0 148 70" fill="none" xmlns="http://www.w3.org/2000/svg">
<path d="M64.96 44.136C64.96 52.648 61.984 59.08 56.032 63.432C50.144 67.784 42.4 69.96 32.8 69.96C23.136 69.96 15.36 67.784 9.472 63.432C3.584 59.08 0.64 52.584 0.64 43.944V26.856C0.64 21.096 2.08 16.264 4.96 12.36C7.84 8.456 11.68 5.576 16.48 3.72C21.344 1.8 26.784 0.839996 32.8 0.839996C38.816 0.839996 44.224 1.8 49.024 3.72C53.888 5.576 57.76 8.456 60.64 12.36C63.52 16.2 64.96 20.968 64.96 26.664V44.136ZM26.56 44.904C26.56 46.696 27.168 48.2 28.384 49.416C29.6 50.568 31.072 51.144 32.8 51.144C34.528 51.144 36 50.536 37.216 49.32C38.432 48.104 39.04 46.632 39.04 44.904V25.704C39.04 23.912 38.432 22.44 37.216 21.288C36.064 20.072 34.592 19.464 32.8 19.464C31.008 19.464 29.504 20.072 28.288 21.288C27.136 22.504 26.56 23.976 26.56 25.704V44.904ZM145.371 49.32C146.075 49.32 146.683 49.576 147.195 50.088C147.707 50.6 147.963 51.208 147.963 51.912V66.408C147.963 67.112 147.707 67.72 147.195 68.232C146.683 68.744 146.075 69 145.371 69H87.3865C86.6825 69 86.0745 68.744 85.5625 68.232C85.0505 67.72 84.7945 67.112 84.7945 66.408V51.912C84.7945 51.208 85.0505 50.6 85.5625 50.088C86.0745 49.576 86.6825 49.32 87.3865 49.32H105.147V26.28L95.4505 32.712C94.9385 33.032 94.4585 33.192 94.0105 33.192C93.1785 33.192 92.4425 32.776 91.8025 31.944L84.0265 19.848C83.8345 19.464 83.7385 19.016 83.7385 18.504C83.7385 17.48 84.1225 16.68 84.8905 16.104L106.203 2.184C106.651 1.928 107.163 1.8 107.739 1.8H127.515C128.219 1.8 128.827 2.056 129.339 2.568C129.851 3.08 130.107 3.688 130.107 4.392V49.32H145.371Z" fill="white" fill-opacity="0.3"/>
</svg>
