<svg width="147" height="70" viewBox="0 0 147 70" fill="none" xmlns="http://www.w3.org/2000/svg">
<path d="M64.96 44.136C64.96 52.648 61.984 59.08 56.032 63.432C50.144 67.784 42.4 69.96 32.8 69.96C23.136 69.96 15.36 67.784 9.472 63.432C3.584 59.08 0.64 52.584 0.64 43.944V26.856C0.64 21.096 2.08 16.264 4.96 12.36C7.84 8.456 11.68 5.576 16.48 3.72C21.344 1.8 26.784 0.839996 32.8 0.839996C38.816 0.839996 44.224 1.8 49.024 3.72C53.888 5.576 57.76 8.456 60.64 12.36C63.52 16.2 64.96 20.968 64.96 26.664V44.136ZM26.56 44.904C26.56 46.696 27.168 48.2 28.384 49.416C29.6 50.568 31.072 51.144 32.8 51.144C34.528 51.144 36 50.536 37.216 49.32C38.432 48.104 39.04 46.632 39.04 44.904V25.704C39.04 23.912 38.432 22.44 37.216 21.288C36.064 20.072 34.592 19.464 32.8 19.464C31.008 19.464 29.504 20.072 28.288 21.288C27.136 22.504 26.56 23.976 26.56 25.704V44.904ZM143.931 49.32C144.635 49.32 145.243 49.576 145.755 50.088C146.267 50.6 146.523 51.208 146.523 51.912V66.408C146.523 67.112 146.267 67.72 145.755 68.232C145.243 68.744 144.635 69 143.931 69H86.0425C85.3385 69 84.7305 68.744 84.2185 68.232C83.7065 67.72 83.4505 67.112 83.4505 66.408V54.6C83.4505 53.64 83.5785 52.712 83.8345 51.816C84.0905 50.92 84.7945 50.12 85.9465 49.416C96.8265 42.568 104.955 37.096 110.331 33C115.771 28.904 118.491 25.736 118.491 23.496C118.491 22.28 118.267 21.352 117.819 20.712C117.371 20.008 116.379 19.656 114.843 19.656C113.051 19.656 111.803 20.104 111.099 21C110.395 21.896 109.915 22.824 109.659 23.784C109.467 24.744 109.307 25.384 109.179 25.704C108.987 26.216 108.699 26.536 108.315 26.664C107.995 26.728 107.643 26.76 107.259 26.76C106.875 26.76 106.619 26.76 106.491 26.76H87.0025C86.3625 26.76 85.7865 26.536 85.2745 26.088C84.8265 25.576 84.6025 25 84.6025 24.36C84.6025 19.624 85.8505 15.496 88.3465 11.976C90.9065 8.392 94.5225 5.64 99.1945 3.72C103.867 1.8 109.339 0.839996 115.611 0.839996C124.955 0.839996 132.027 2.696 136.827 6.408C141.627 10.12 144.027 15.4 144.027 22.248C144.027 25.448 143.003 28.456 140.955 31.272C138.971 34.088 136.443 36.68 133.371 39.048C130.363 41.416 126.235 44.328 120.987 47.784L118.683 49.32H143.931Z" fill="white" fill-opacity="0.3"/>
</svg>
