<svg width="148" height="70" viewBox="0 0 148 70" fill="none" xmlns="http://www.w3.org/2000/svg">
<path d="M64.96 44.136C64.96 52.648 61.984 59.08 56.032 63.432C50.144 67.784 42.4 69.96 32.8 69.96C23.136 69.96 15.36 67.784 9.472 63.432C3.584 59.08 0.64 52.584 0.64 43.944V26.856C0.64 21.096 2.08 16.264 4.96 12.36C7.84 8.456 11.68 5.576 16.48 3.72C21.344 1.8 26.784 0.839996 32.8 0.839996C38.816 0.839996 44.224 1.8 49.024 3.72C53.888 5.576 57.76 8.456 60.64 12.36C63.52 16.2 64.96 20.968 64.96 26.664V44.136ZM26.56 44.904C26.56 46.696 27.168 48.2 28.384 49.416C29.6 50.568 31.072 51.144 32.8 51.144C34.528 51.144 36 50.536 37.216 49.32C38.432 48.104 39.04 46.632 39.04 44.904V25.704C39.04 23.912 38.432 22.44 37.216 21.288C36.064 20.072 34.592 19.464 32.8 19.464C31.008 19.464 29.504 20.072 28.288 21.288C27.136 22.504 26.56 23.976 26.56 25.704V44.904ZM129.627 28.104C141.851 30.984 147.963 37.608 147.963 47.976C147.963 52.328 146.523 56.168 143.643 59.496C140.827 62.824 136.891 65.416 131.835 67.272C126.779 69.064 121.051 69.96 114.651 69.96C107.035 69.96 100.731 68.904 95.7385 66.792C90.8105 64.616 87.1945 61.992 84.8905 58.92C82.6505 55.848 81.5305 52.872 81.5305 49.992C81.5305 49.352 81.7225 48.84 82.1065 48.456C82.5545 48.072 83.0665 47.88 83.6425 47.88H104.667C105.371 47.88 106.107 48.264 106.875 49.032C107.771 49.864 108.667 50.472 109.563 50.856C110.459 51.176 112.187 51.336 114.747 51.336C117.179 51.336 119.003 50.856 120.219 49.896C121.435 48.936 122.042 47.72 122.042 46.248C122.042 43.432 119.579 42.024 114.651 42.024H101.883C101.179 42.024 100.571 41.768 100.059 41.256C99.5465 40.744 99.2905 40.136 99.2905 39.432V31.656C99.2905 30.76 99.4825 29.992 99.8665 29.352C100.251 28.648 100.731 28.136 101.307 27.816L115.419 20.52H88.5385C87.8345 20.52 87.2265 20.264 86.7145 19.752C86.2025 19.24 85.9465 18.632 85.9465 17.928V4.392C85.9465 3.688 86.2025 3.08 86.7145 2.568C87.2265 2.056 87.8345 1.8 88.5385 1.8H140.955C141.659 1.8 142.267 2.056 142.779 2.568C143.291 3.08 143.547 3.688 143.547 4.392V16.584C143.547 18.056 142.875 19.336 141.531 20.424L129.627 28.104Z" fill="white" fill-opacity="0.3"/>
</svg>
