<svg width="150" height="70" viewBox="0 0 150 70" fill="none" xmlns="http://www.w3.org/2000/svg">
<path d="M64.96 44.136C64.96 52.648 61.984 59.08 56.032 63.432C50.144 67.784 42.4 69.96 32.8 69.96C23.136 69.96 15.36 67.784 9.472 63.432C3.584 59.08 0.64 52.584 0.64 43.944V26.856C0.64 21.096 2.08 16.264 4.96 12.36C7.84 8.456 11.68 5.576 16.48 3.72C21.344 1.8 26.784 0.839996 32.8 0.839996C38.816 0.839996 44.224 1.8 49.024 3.72C53.888 5.576 57.76 8.456 60.64 12.36C63.52 16.2 64.96 20.968 64.96 26.664V44.136ZM26.56 44.904C26.56 46.696 27.168 48.2 28.384 49.416C29.6 50.568 31.072 51.144 32.8 51.144C34.528 51.144 36 50.536 37.216 49.32C38.432 48.104 39.04 46.632 39.04 44.904V25.704C39.04 23.912 38.432 22.44 37.216 21.288C36.064 20.072 34.592 19.464 32.8 19.464C31.008 19.464 29.504 20.072 28.288 21.288C27.136 22.504 26.56 23.976 26.56 25.704V44.904ZM146.427 38.76C147.195 38.76 147.835 39.016 148.347 39.528C148.859 40.04 149.115 40.648 149.115 41.352V55.656C149.115 56.36 148.859 56.968 148.347 57.48C147.835 57.992 147.227 58.248 146.523 58.248H138.075V66.408C138.075 67.112 137.819 67.72 137.307 68.232C136.795 68.744 136.187 69 135.483 69H116.187C115.483 69 114.875 68.744 114.363 68.232C113.851 67.72 113.595 67.112 113.595 66.408V58.248H82.4905C81.7865 58.248 81.1785 57.992 80.6665 57.48C80.1545 56.968 79.8985 56.36 79.8985 55.656V41.448C79.8985 40.36 80.2505 39.368 80.9545 38.472L110.043 3.432C110.939 2.344 112.123 1.8 113.595 1.8H135.483C136.187 1.8 136.795 2.056 137.307 2.568C137.819 3.08 138.075 3.688 138.075 4.392V38.76H146.427ZM114.267 39.816V26.28L103.227 39.816H114.267Z" fill="white" fill-opacity="0.3"/>
</svg>
