<svg width="147" height="70" viewBox="0 0 147 70" fill="none" xmlns="http://www.w3.org/2000/svg">
<path d="M64.96 44.136C64.96 52.648 61.984 59.08 56.032 63.432C50.144 67.784 42.4 69.96 32.8 69.96C23.136 69.96 15.36 67.784 9.472 63.432C3.584 59.08 0.64 52.584 0.64 43.944V26.856C0.64 21.096 2.08 16.264 4.96 12.36C7.84 8.456 11.68 5.576 16.48 3.72C21.344 1.8 26.784 0.839996 32.8 0.839996C38.816 0.839996 44.224 1.8 49.024 3.72C53.888 5.576 57.76 8.456 60.64 12.36C63.52 16.2 64.96 20.968 64.96 26.664V44.136ZM26.56 44.904C26.56 46.696 27.168 48.2 28.384 49.416C29.6 50.568 31.072 51.144 32.8 51.144C34.528 51.144 36 50.536 37.216 49.32C38.432 48.104 39.04 46.632 39.04 44.904V25.704C39.04 23.912 38.432 22.44 37.216 21.288C36.064 20.072 34.592 19.464 32.8 19.464C31.008 19.464 29.504 20.072 28.288 21.288C27.136 22.504 26.56 23.976 26.56 25.704V44.904ZM106.875 47.88C107.771 49.032 108.763 49.896 109.851 50.472C110.939 50.984 112.251 51.24 113.787 51.24C116.027 51.24 117.787 50.728 119.067 49.704C120.411 48.616 121.083 47.144 121.083 45.288C121.083 43.432 120.411 41.992 119.067 40.968C117.723 39.944 115.963 39.432 113.787 39.432C112.571 39.432 111.579 39.592 110.811 39.912C110.043 40.168 109.275 40.52 108.507 40.968C107.803 41.48 107.195 41.736 106.683 41.736H87.5785C87.0025 41.736 86.4905 41.544 86.0425 41.16C85.6585 40.712 85.4665 40.2 85.4665 39.624C85.4665 39.304 85.4665 39.144 85.4665 39.144L89.2105 5.832C89.3385 4.616 89.8185 3.656 90.6505 2.952C91.4825 2.184 92.5065 1.8 93.7225 1.8H139.323C140.027 1.8 140.635 2.056 141.147 2.568C141.659 3.08 141.915 3.688 141.915 4.392V17.928C141.915 18.632 141.659 19.24 141.147 19.752C140.635 20.264 140.027 20.52 139.323 20.52H108.891L108.123 27.144C110.043 25.928 112.027 25.096 114.075 24.648C116.123 24.136 118.907 23.88 122.427 23.88C126.651 23.88 130.619 24.84 134.331 26.76C138.107 28.68 141.115 31.336 143.355 34.728C145.659 38.056 146.811 41.8 146.811 45.96C146.811 50.504 145.435 54.6 142.683 58.248C139.995 61.896 136.155 64.776 131.163 66.888C126.171 68.936 120.347 69.96 113.691 69.96C107.163 69.96 101.499 69 96.6985 67.08C91.8985 65.096 88.2185 62.472 85.6585 59.208C83.1625 55.944 81.9145 52.36 81.9145 48.456C81.9145 47.88 82.1065 47.4 82.4905 47.016C82.9385 46.568 83.4505 46.344 84.0265 46.344H103.419C104.891 46.344 106.043 46.856 106.875 47.88Z" fill="white" fill-opacity="0.3"/>
</svg>
