<svg width="32" height="36" viewBox="0 0 32 36" fill="none" xmlns="http://www.w3.org/2000/svg">
<path d="M2.62831 14.4C2.69535 13.5647 3.07457 12.7853 3.69044 12.217C4.30631 11.6487 5.11364 11.3332 5.95165 11.3333H26.0483C26.8863 11.3332 27.6937 11.6487 28.3095 12.217C28.9254 12.7853 29.3046 13.5647 29.3716 14.4L30.71 31.0667C30.7468 31.5253 30.6882 31.9866 30.538 32.4216C30.3878 32.8565 30.1492 33.2556 29.8371 33.5938C29.5251 33.9319 29.1465 34.2018 28.725 34.3865C28.3036 34.5711 27.8484 34.6665 27.3883 34.6667H4.61165C4.15152 34.6665 3.6964 34.5711 3.27495 34.3865C2.85349 34.2018 2.47483 33.9319 2.16281 33.5938C1.85078 33.2556 1.61215 32.8565 1.46193 32.4216C1.31172 31.9866 1.25317 31.5253 1.28998 31.0667L2.62831 14.4V14.4Z" stroke="black" stroke-width="2" stroke-linecap="round" stroke-linejoin="round"/>
<path d="M22.6666 16.3333V8.00001C22.6666 6.2319 21.9643 4.53621 20.714 3.28597C19.4638 2.03572 17.7681 1.33334 16 1.33334C14.2319 1.33334 12.5362 2.03572 11.2859 3.28597C10.0357 4.53621 9.33331 6.2319 9.33331 8.00001V16.3333" stroke="black" stroke-width="2" stroke-linecap="round" stroke-linejoin="round"/>
</svg>
